<?xml version="1.0" encoding="UTF-8"?>
<!-- Generated by jsxcad -->
<!DOCTYPE svg PUBLIC "-//W3C//DTD SVG 1.1 Tiny//EN" "http://www.w3.org/Graphics/SVG/1.1/DTD/svg11-tiny.dtd">
<svg baseProfile="tiny" height="20.000000000000014mm" width="20.000000000000014mm" viewBox="0 0 20.000000000000014 20.000000000000014" version="1.1" stroke="black" stroke-width=".1" fill="none" xmlns="http://www.w3.org/2000/svg">
<path fill="#000000" stroke="#000000" d="M10 20 L9.37209 19.98027 L8.74667 19.92115 L8.12619 19.82287 L7.5131 19.68583 L6.90983 19.51056 L6.31875 19.29776 L5.74221 19.04827 L5.18246 18.76307 L4.64173 18.44328 L4.12215 18.09017 L3.62576 17.70513 L3.15453 17.28969 L2.71031 16.84547 L2.29487 16.37424 L1.90983 15.87785 L1.55672 15.35827 L1.23693 14.81754 L0.95173 14.25779 L0.70224 13.68125 L0.48944 13.09017 L0.31417 12.4869 L0.17713 11.87381 L0.07885 11.25333 L0.01973 10.62791 L0 10 L0.01973 9.37209 L0.07885 8.74667 L0.17713 8.12619 L0.31417 7.5131 L0.48944 6.90983 L0.70224 6.31875 L0.95173 5.74221 L1.23693 5.18246 L1.55672 4.64173 L1.90983 4.12215 L2.29487 3.62576 L2.71031 3.15453 L3.15453 2.71031 L3.62576 2.29487 L4.12215 1.90983 L4.64173 1.55672 L5.18246 1.23693 L5.74221 0.95173 L6.31875 0.70224 L6.90983 0.48944 L7.5131 0.31417 L8.12619 0.17713 L8.74667 0.07885 L9.37209 0.01973 L10 0 L10.62791 0.01973 L11.25333 0.07885 L11.87381 0.17713 L12.4869 0.31417 L13.09017 0.48944 L13.68125 0.70224 L14.25779 0.95173 L14.81754 1.23693 L15.35827 1.55672 L15.87785 1.90983 L16.37424 2.29487 L16.84547 2.71031 L17.28969 3.15453 L17.70513 3.62576 L18.09017 4.12215 L18.44328 4.64173 L18.76307 5.18246 L19.04827 5.74221 L19.29776 6.31875 L19.51056 6.90983 L19.68583 7.5131 L19.82287 8.12619 L19.92115 8.74667 L19.98027 9.37209 L20 10 L19.98027 10.62791 L19.92115 11.25333 L19.82287 11.87381 L19.68583 12.4869 L19.51056 13.09017 L19.29776 13.68125 L19.04827 14.25779 L18.76307 14.81754 L18.44328 15.35827 L18.09017 15.87785 L17.70513 16.37424 L17.28969 16.84547 L16.84547 17.28969 L16.37424 17.70513 L15.87785 18.09017 L15.35827 18.44328 L14.81754 18.76307 L14.25779 19.04827 L13.68125 19.29776 L13.09017 19.51056 L12.4869 19.68583 L11.87381 19.82287 L11.25333 19.92115 L10.62791 19.98027 z"/>
<path fill="#000000" stroke="#000000" d="M11.873810411172405 19.822872596022318 L11.873810411172405 19.822872596022318 L11.253329648165858 19.92114777862212 L11.253329648165858 19.92114777862212 z"/>
<path fill="#000000" stroke="#000000" d="M10.627909725490591 19.98026709598901 L10.627909725490591 19.98026709598901 L11.253329772438851 19.921147592650556 L11.253329772438851 19.921147592650556 z"/>
<path fill="#000000" stroke="#000000" d="M10 20.000000000000007 L10 20.000000000000007 L10.62790991754325 19.980267376151737 L10.62790991754325 19.980267376151737 z"/>
<path fill="#000000" stroke="#000000" d="M13.090171279812846 19.510564405124857 L13.090171279812846 19.510564405124857 L12.486900456465047 19.685831571155916 L12.486900456465047 19.685831571155916 z"/>
<path fill="#000000" stroke="#000000" d="M12.486900378417284 19.685831692951027 L12.486900378417284 19.685831692951027 L11.87381061024229 19.822872730082256 L11.87381061024229 19.822872730082256 z"/>
<path fill="#000000" stroke="#000000" d="M15.877850871327901 18.090171123309677 L15.877850871327901 18.090171123309677 L16.374241173728645 17.70513151316255 L16.374241173728645 17.70513151316255 z"/>
<path fill="#000000" stroke="#000000" d="M14.257790547443031 19.048271265065083 L14.257790547443031 19.048271265065083 L13.68125104210465 19.29776240815963 L13.68125104210465 19.29776240815963 z"/>
<path fill="#000000" stroke="#000000" d="M13.681251014009922 19.297762816524948 L13.681251014009922 19.297762816524948 L13.090171520400176 19.510564223080014 L13.090171520400176 19.510564223080014 z"/>
<path fill="#000000" stroke="#000000" d="M15.358268958857709 18.44327846800561 L15.358268958857709 18.44327846800561 L15.877850727437208 18.090171070391367 L15.877850727437208 18.090171070391367 z"/>
<path fill="#000000" stroke="#000000" d="M14.817537971909395 18.76306657069234 L14.817537971909395 18.76306657069234 L15.358269104364034 18.44327848556506 L15.358269104364034 18.44327848556506 z"/>
<path fill="#000000" stroke="#000000" d="M14.81753823260477 18.76306653128216 L14.81753823260477 18.76306653128216 L14.257790699174063 19.048271372210078 L14.257790699174063 19.048271372210078 z"/>
<path fill="#000000" stroke="#000000" d="M17.28968855415345 16.84546855415345 L17.28968855415345 16.84546855415345 L16.84546855415345 17.28968855415345 L16.84546855415345 17.28968855415345 z"/>
<path fill="#000000" stroke="#000000" d="M16.84546851239148 17.28968831264051 L16.84546851239148 17.28968831264051 L16.374241198122707 17.705131359002518 L16.374241198122707 17.705131359002518 z"/>
<path fill="#000000" stroke="#000000" d="M18.44327846800561 15.358268958857709 L18.44327846800561 15.358268958857709 L18.090171070391367 15.877850727437208 L18.090171070391367 15.877850727437208 z"/>
<path fill="#000000" stroke="#000000" d="M17.70513151316255 16.374241173728645 L17.70513151316255 16.374241173728645 L18.090171123309677 15.877850871327901 L18.090171123309677 15.877850871327901 z"/>
<path fill="#000000" stroke="#000000" d="M17.705131359002518 16.374241198122707 L17.705131359002518 16.374241198122707 L17.28968831264051 16.84546851239148 L17.28968831264051 16.84546851239148 z"/>
<path fill="#000000" stroke="#000000" d="M19.048271372210078 14.257790699174063 L19.048271372210078 14.257790699174063 L18.76306653128216 14.81753823260477 L18.76306653128216 14.81753823260477 z"/>
<path fill="#000000" stroke="#000000" d="M18.76306657069234 14.817537971909395 L18.76306657069234 14.817537971909395 L18.44327848556506 15.358269104364034 L18.44327848556506 15.358269104364034 z"/>
<path fill="#000000" stroke="#000000" d="M19.510564223080014 13.090171520400176 L19.510564223080014 13.090171520400176 L19.297762816524948 13.681251014009922 L19.297762816524948 13.681251014009922 z"/>
<path fill="#000000" stroke="#000000" d="M19.29776240815963 13.68125104210465 L19.29776240815963 13.68125104210465 L19.048271265065083 14.257790547443031 L19.048271265065083 14.257790547443031 z"/>
<path fill="#000000" stroke="#000000" d="M19.92114777862212 11.253329648165858 L19.92114777862212 11.253329648165858 L19.822872596022318 11.873810411172405 L19.822872596022318 11.873810411172405 z"/>
<path fill="#000000" stroke="#000000" d="M19.685831692951027 12.486900378417284 L19.685831692951027 12.486900378417284 L19.822872730082256 11.87381061024229 L19.822872730082256 11.87381061024229 z"/>
<path fill="#000000" stroke="#000000" d="M19.685831571155916 12.486900456465047 L19.685831571155916 12.486900456465047 L19.510564405124857 13.090171279812846 L19.510564405124857 13.090171279812846 z"/>
<path fill="#000000" stroke="#000000" d="M20.000000000000007 10 L20.000000000000007 10 L19.980267376151737 10.62790991754325 L19.980267376151737 10.62790991754325 z"/>
<path fill="#000000" stroke="#000000" d="M19.98026709598901 10.627909725490591 L19.98026709598901 10.627909725490591 L19.921147592650556 11.253329772438851 L19.921147592650556 11.253329772438851 z"/>
<path fill="#000000" stroke="#000000" d="M19.98026709598901 9.372090274509409 L19.98026709598901 9.372090274509409 L19.921147592650552 8.746670227561147 L19.921147592650552 8.746670227561147 z"/>
<path fill="#000000" stroke="#000000" d="M19.92114777862212 8.74667035183414 L19.92114777862212 8.74667035183414 L19.822872596022318 8.126189588827595 L19.822872596022318 8.126189588827595 z"/>
<path fill="#000000" stroke="#000000" d="M19.980267376151737 9.372090082456749 L19.980267376151737 9.372090082456749 L20.000000000000004 9.999999999999998 L20.000000000000004 9.999999999999998 z"/>
<path fill="#000000" stroke="#000000" d="M19.510564405124853 6.909828720187154 L19.510564405124853 6.909828720187154 L19.685831571155912 7.513099543534953 L19.685831571155912 7.513099543534953 z"/>
<path fill="#000000" stroke="#000000" d="M19.685831692951023 7.5130996215827155 L19.685831692951023 7.5130996215827155 L19.822872730082253 8.126189389757709 L19.822872730082253 8.126189389757709 z"/>
<path fill="#000000" stroke="#000000" d="M19.04827126506508 5.7422094525569705 L19.04827126506508 5.7422094525569705 L19.297762408159628 6.318748957895351 L19.297762408159628 6.318748957895351 z"/>
<path fill="#000000" stroke="#000000" d="M19.297762816524944 6.318748985990079 L19.297762816524944 6.318748985990079 L19.510564223080006 6.909828479599825 L19.510564223080006 6.909828479599825 z"/>
<path fill="#000000" stroke="#000000" d="M18.763066531282153 5.182461767395231 L18.763066531282153 5.182461767395231 L19.04827137221007 5.742209300825938 L19.04827137221007 5.742209300825938 z"/>
<path fill="#000000" stroke="#000000" d="M17.70513135900251 3.625758801877297 L17.70513135900251 3.625758801877297 L17.289688312640504 3.1545314876085215 L17.289688312640504 3.1545314876085215 z"/>
<path fill="#000000" stroke="#000000" d="M17.28968855415344 3.1545314458465574 L17.28968855415344 3.1545314458465574 L16.84546855415344 2.710311445846557 L16.84546855415344 2.710311445846557 z"/>
<path fill="#000000" stroke="#000000" d="M18.09017107039136 4.122149272562797 L18.09017107039136 4.122149272562797 L18.4432784680056 4.641731041142293 L18.4432784680056 4.641731041142293 z"/>
<path fill="#000000" stroke="#000000" d="M18.443278485565052 4.641730895635968 L18.443278485565052 4.641730895635968 L18.763066570692335 5.182462028090607 L18.763066570692335 5.182462028090607 z"/>
<path fill="#000000" stroke="#000000" d="M18.09017112330967 4.122149128672104 L18.09017112330967 4.122149128672104 L17.70513151316254 3.625758826271358 L17.70513151316254 3.625758826271358 z"/>
<path fill="#000000" stroke="#000000" d="M15.358268958857703 1.5567215319943981 L15.358268958857703 1.5567215319943981 L15.8778507274372 1.9098289296086401 L15.8778507274372 1.9098289296086401 z"/>
<path fill="#000000" stroke="#000000" d="M16.374241173728638 2.294868486837459 L16.374241173728638 2.294868486837459 L15.877850871327894 1.9098288766903315 L15.877850871327894 1.9098288766903315 z"/>
<path fill="#000000" stroke="#000000" d="M16.3742411981227 2.294868640997489 L16.3742411981227 2.294868640997489 L16.845468512391474 2.7103116873594937 L16.845468512391474 2.7103116873594937 z"/>
<path fill="#000000" stroke="#000000" d="M14.257790699174057 0.951728627789932 L14.257790699174057 0.951728627789932 L14.817538232604765 1.2369334687178508 L14.817538232604765 1.2369334687178508 z"/>
<path fill="#000000" stroke="#000000" d="M14.817537971909388 1.2369334293076681 L14.817537971909388 1.2369334293076681 L15.358269104364028 1.5567215144349484 L15.358269104364028 1.5567215144349484 z"/>
<path fill="#000000" stroke="#000000" d="M13.681251042104645 0.7022375918403786 L13.681251042104645 0.7022375918403786 L14.257790547443026 0.9517287349349257 L14.257790547443026 0.9517287349349257 z"/>
<path fill="#000000" stroke="#000000" d="M13.090171279812843 0.48943559487515603 L13.090171279812843 0.48943559487515603 L12.486900456465044 0.3141684288440944 L12.486900456465044 0.3141684288440944 z"/>
<path fill="#000000" stroke="#000000" d="M11.873810610242288 0.17712726991775496 L11.873810610242288 0.17712726991775496 L12.48690037841728 0.3141683070489843 L12.48690037841728 0.3141683070489843 z"/>
<path fill="#000000" stroke="#000000" d="M11.873810411172403 0.17712740397769283 L11.873810411172403 0.17712740397769283 L11.253329648165856 0.07885222137789048 L11.253329648165856 0.07885222137789048 z"/>
<path fill="#000000" stroke="#000000" d="M13.090171520400173 0.48943577691999907 L13.090171520400173 0.48943577691999907 L13.681251014009916 0.7022371834750617 L13.681251014009916 0.7022371834750617 z"/>
<path fill="#000000" stroke="#000000" d="M10 7.549846808001299e-15 L10 7.549846808001299e-15 L9.372090082456749 0.01973262384827486 L9.372090082456749 0.01973262384827486 z"/>
<path fill="#000000" stroke="#000000" d="M9.372090274509409 0.019732904011003846 L9.372090274509409 0.019732904011003846 L8.746670227561149 0.07885240734945898 L8.746670227561149 0.07885240734945898 z"/>
<path fill="#000000" stroke="#000000" d="M10.62790991754325 0.019732623848274414 L10.62790991754325 0.019732623848274414 L9.999999999999998 6.646987310496071e-15 L9.999999999999998 6.646987310496071e-15 z"/>
<path fill="#000000" stroke="#000000" d="M10.62790972549059 0.019732904011002514 L10.62790972549059 0.019732904011002514 L11.25332977243885 0.07885240734945764 L11.25332977243885 0.07885240734945764 z"/>
<path fill="#000000" stroke="#000000" d="M7.513099621582719 0.31416830704898735 L7.513099621582719 0.31416830704898735 L8.126189389757712 0.17712726991775798 L8.126189389757712 0.17712726991775798 z"/>
<path fill="#000000" stroke="#000000" d="M8.126189588827597 0.17712740397769502 L8.126189588827597 0.17712740397769502 L8.746670351834142 0.07885222137789268 L8.746670351834142 0.07885222137789268 z"/>
<path fill="#000000" stroke="#000000" d="M6.909828720187158 0.4894355948751596 L6.909828720187158 0.4894355948751596 L7.513099543534956 0.3141684288440982 L7.513099543534956 0.3141684288440982 z"/>
<path fill="#000000" stroke="#000000" d="M5.742209452556976 0.9517287349349309 L5.742209452556976 0.9517287349349309 L6.318748957895356 0.7022375918403838 L6.318748957895356 0.7022375918403838 z"/>
<path fill="#000000" stroke="#000000" d="M6.318748985990084 0.7022371834750663 L6.318748985990084 0.7022371834750663 L6.909828479599828 0.4894357769200033 L6.909828479599828 0.4894357769200033 z"/>
<path fill="#000000" stroke="#000000" d="M4.641730895635973 1.5567215144349549 L4.641730895635973 1.5567215144349549 L5.1824620280906135 1.2369334293076748 L5.1824620280906135 1.2369334293076748 z"/>
<path fill="#000000" stroke="#000000" d="M5.182461767395236 1.236933468717857 L5.182461767395236 1.236933468717857 L5.742209300825945 0.9517286277899377 L5.742209300825945 0.9517286277899377 z"/>
<path fill="#000000" stroke="#000000" d="M3.154531487608528 2.7103116873595017 L3.154531487608528 2.7103116873595017 L3.6257588018773035 2.2948686409974957 L3.6257588018773035 2.2948686409974957 z"/>
<path fill="#000000" stroke="#000000" d="M4.122149128672111 1.909828876690338 L4.122149128672111 1.909828876690338 L3.6257588262713645 2.2948684868374656 L3.6257588262713645 2.2948684868374656 z"/>
<path fill="#000000" stroke="#000000" d="M4.122149272562803 1.9098289296086464 L4.122149272562803 1.9098289296086464 L4.641731041142299 1.556721531994405 L4.641731041142299 1.556721531994405 z"/>
<path fill="#000000" stroke="#000000" d="M2.2948686409974957 3.6257588018773035 L2.2948686409974957 3.6257588018773035 L2.7103116873595017 3.154531487608528 L2.7103116873595017 3.154531487608528 z"/>
<path fill="#000000" stroke="#000000" d="M2.710311445846565 3.1545314458465645 L2.710311445846565 3.1545314458465645 L3.1545314458465645 2.710311445846565 L3.1545314458465645 2.710311445846565 z"/>
<path fill="#000000" stroke="#000000" d="M1.556721531994405 4.641731041142299 L1.556721531994405 4.641731041142299 L1.9098289296086464 4.122149272562803 L1.9098289296086464 4.122149272562803 z"/>
<path fill="#000000" stroke="#000000" d="M1.909828876690338 4.122149128672111 L1.909828876690338 4.122149128672111 L2.2948684868374656 3.6257588262713645 L2.2948684868374656 3.6257588262713645 z"/>
<path fill="#000000" stroke="#000000" d="M0.9517286277899377 5.742209300825945 L0.9517286277899377 5.742209300825945 L1.236933468717857 5.182461767395236 L1.236933468717857 5.182461767395236 z"/>
<path fill="#000000" stroke="#000000" d="M1.2369334293076748 5.1824620280906135 L1.2369334293076748 5.1824620280906135 L1.5567215144349549 4.641730895635973 L1.5567215144349549 4.641730895635973 z"/>
<path fill="#000000" stroke="#000000" d="M0.3141684288440982 7.513099543534956 L0.3141684288440982 7.513099543534956 L0.4894355948751596 6.909828720187158 L0.4894355948751596 6.909828720187158 z"/>
<path fill="#000000" stroke="#000000" d="M0.7022371834750663 6.318748985990084 L0.7022371834750663 6.318748985990084 L0.4894357769200033 6.909828479599828 L0.4894357769200033 6.909828479599828 z"/>
<path fill="#000000" stroke="#000000" d="M0.7022375918403838 6.318748957895356 L0.7022375918403838 6.318748957895356 L0.9517287349349309 5.742209452556976 L0.9517287349349309 5.742209452556976 z"/>
<path fill="#000000" stroke="#000000" d="M0.17712726991775798 8.126189389757712 L0.17712726991775798 8.126189389757712 L0.31416830704898735 7.513099621582719 L0.31416830704898735 7.513099621582719 z"/>
<path fill="#000000" stroke="#000000" d="M6.307094575122918e-15 10 L6.307094575122918e-15 10 L0.01973262384827486 9.372090082456749 L0.01973262384827486 9.372090082456749 z"/>
<path fill="#000000" stroke="#000000" d="M0.07885240734945898 8.746670227561149 L0.07885240734945898 8.746670227561149 L0.019732904011003846 9.372090274509409 L0.019732904011003846 9.372090274509409 z"/>
<path fill="#000000" stroke="#000000" d="M0.07885222137789268 8.746670351834142 L0.07885222137789268 8.746670351834142 L0.17712740397769502 8.126189588827597 L0.17712740397769502 8.126189588827597 z"/>
<path fill="#000000" stroke="#000000" d="M0.019732623848274414 10.62790991754325 L0.019732623848274414 10.62790991754325 L7.88973954337438e-15 9.999999999999998 L7.88973954337438e-15 9.999999999999998 z"/>
<path fill="#000000" stroke="#000000" d="M0.07885240734945764 11.25332977243885 L0.07885240734945764 11.25332977243885 L0.019732904011002514 10.62790972549059 L0.019732904011002514 10.62790972549059 z"/>
<path fill="#000000" stroke="#000000" d="M0.07885222137789048 11.253329648165856 L0.07885222137789048 11.253329648165856 L0.17712740397769283 11.873810411172403 L0.17712740397769283 11.873810411172403 z"/>
<path fill="#000000" stroke="#000000" d="M0.48943559487515603 13.090171279812843 L0.48943559487515603 13.090171279812843 L0.3141684288440944 12.486900456465044 L0.3141684288440944 12.486900456465044 z"/>
<path fill="#000000" stroke="#000000" d="M0.3141683070489843 12.48690037841728 L0.3141683070489843 12.48690037841728 L0.17712726991775496 11.873810610242288 L0.17712726991775496 11.873810610242288 z"/>
<path fill="#000000" stroke="#000000" d="M0.7022371834750617 13.681251014009916 L0.7022371834750617 13.681251014009916 L0.48943577691999907 13.090171520400173 L0.48943577691999907 13.090171520400173 z"/>
<path fill="#000000" stroke="#000000" d="M1.5567215144349484 15.358269104364028 L1.5567215144349484 15.358269104364028 L1.2369334293076681 14.817537971909388 L1.2369334293076681 14.817537971909388 z"/>
<path fill="#000000" stroke="#000000" d="M0.951728627789932 14.257790699174057 L0.951728627789932 14.257790699174057 L1.2369334687178508 14.817538232604765 L1.2369334687178508 14.817538232604765 z"/>
<path fill="#000000" stroke="#000000" d="M0.9517287349349257 14.257790547443026 L0.9517287349349257 14.257790547443026 L0.7022375918403786 13.681251042104645 L0.7022375918403786 13.681251042104645 z"/>
<path fill="#000000" stroke="#000000" d="M3.625758826271358 17.70513151316254 L3.625758826271358 17.70513151316254 L4.122149128672104 18.09017112330967 L4.122149128672104 18.09017112330967 z"/>
<path fill="#000000" stroke="#000000" d="M2.294868486837459 16.374241173728638 L2.294868486837459 16.374241173728638 L1.9098288766903315 15.877850871327894 L1.9098288766903315 15.877850871327894 z"/>
<path fill="#000000" stroke="#000000" d="M1.9098289296086401 15.8778507274372 L1.9098289296086401 15.8778507274372 L1.5567215319943981 15.358268958857703 L1.5567215319943981 15.358268958857703 z"/>
<path fill="#000000" stroke="#000000" d="M2.7103116873594937 16.845468512391474 L2.7103116873594937 16.845468512391474 L2.294868640997489 16.3742411981227 L2.294868640997489 16.3742411981227 z"/>
<path fill="#000000" stroke="#000000" d="M3.1545314876085215 17.289688312640504 L3.1545314876085215 17.289688312640504 L3.625758801877297 17.70513135900251 L3.625758801877297 17.70513135900251 z"/>
<path fill="#000000" stroke="#000000" d="M3.1545314458465574 17.28968855415344 L3.1545314458465574 17.28968855415344 L2.710311445846557 16.84546855415344 L2.710311445846557 16.84546855415344 z"/>
<path fill="#000000" stroke="#000000" d="M5.182462028090607 18.763066570692335 L5.182462028090607 18.763066570692335 L4.641730895635968 18.443278485565052 L4.641730895635968 18.443278485565052 z"/>
<path fill="#000000" stroke="#000000" d="M4.641731041142293 18.4432784680056 L4.641731041142293 18.4432784680056 L4.122149272562797 18.09017107039136 L4.122149272562797 18.09017107039136 z"/>
<path fill="#000000" stroke="#000000" d="M6.318748957895351 19.297762408159628 L6.318748957895351 19.297762408159628 L5.7422094525569705 19.04827126506508 L5.7422094525569705 19.04827126506508 z"/>
<path fill="#000000" stroke="#000000" d="M5.742209300825938 19.04827137221007 L5.742209300825938 19.04827137221007 L5.182461767395231 18.763066531282153 L5.182461767395231 18.763066531282153 z"/>
<path fill="#000000" stroke="#000000" d="M7.513099543534953 19.685831571155912 L7.513099543534953 19.685831571155912 L6.909828720187154 19.510564405124853 L6.909828720187154 19.510564405124853 z"/>
<path fill="#000000" stroke="#000000" d="M6.909828479599825 19.510564223080006 L6.909828479599825 19.510564223080006 L6.318748985990079 19.297762816524944 L6.318748985990079 19.297762816524944 z"/>
<path fill="#000000" stroke="#000000" d="M8.74667035183414 19.92114777862212 L8.74667035183414 19.92114777862212 L8.126189588827595 19.822872596022318 L8.126189588827595 19.822872596022318 z"/>
<path fill="#000000" stroke="#000000" d="M8.126189389757709 19.822872730082253 L8.126189389757709 19.822872730082253 L7.5130996215827155 19.685831692951023 L7.5130996215827155 19.685831692951023 z"/>
<path fill="#000000" stroke="#000000" d="M9.372090274509409 19.98026709598901 L9.372090274509409 19.98026709598901 L8.746670227561147 19.921147592650552 L8.746670227561147 19.921147592650552 z"/>
<path fill="#000000" stroke="#000000" d="M9.372090082456749 19.980267376151737 L9.372090082456749 19.980267376151737 L9.999999999999998 20.000000000000004 L9.999999999999998 20.000000000000004 z"/>
<path fill="#000000" stroke="#000000" d="M9.37209 19.98027 L10 20 L10.62791 19.98027 L11.25333 19.92115 L11.87381 19.82287 L12.4869 19.68583 L13.09017 19.51056 L13.68125 19.29776 L14.25779 19.04827 L14.81754 18.76307 L15.35827 18.44328 L15.87785 18.09017 L16.37424 17.70513 L16.84547 17.28969 L17.28969 16.84547 L17.70513 16.37424 L18.09017 15.87785 L18.44328 15.35827 L18.76307 14.81754 L19.04827 14.25779 L19.29776 13.68125 L19.51056 13.09017 L19.68583 12.4869 L19.82287 11.87381 L19.92115 11.25333 L19.98027 10.62791 L20 10 L19.98027 9.37209 L19.92115 8.74667 L19.82287 8.12619 L19.68583 7.5131 L19.51056 6.90983 L19.29776 6.31875 L19.04827 5.74221 L18.76307 5.18246 L18.44328 4.64173 L18.09017 4.12215 L17.70513 3.62576 L17.28969 3.15453 L16.84547 2.71031 L16.37424 2.29487 L15.87785 1.90983 L15.35827 1.55672 L14.81754 1.23693 L14.25779 0.95173 L13.68125 0.70224 L13.09017 0.48944 L12.4869 0.31417 L11.87381 0.17713 L11.25333 0.07885 L10.62791 0.01973 L10 0 L9.37209 0.01973 L8.74667 0.07885 L8.12619 0.17713 L7.5131 0.31417 L6.90983 0.48944 L6.31875 0.70224 L5.74221 0.95173 L5.18246 1.23693 L4.64173 1.55672 L4.12215 1.90983 L3.62576 2.29487 L3.15453 2.71031 L2.71031 3.15453 L2.29487 3.62576 L1.90983 4.12215 L1.55672 4.64173 L1.23693 5.18246 L0.95173 5.74221 L0.70224 6.31875 L0.48944 6.90983 L0.31417 7.5131 L0.17713 8.12619 L0.07885 8.74667 L0.01973 9.37209 L0 10 L0.01973 10.62791 L0.07885 11.25333 L0.17713 11.87381 L0.31417 12.4869 L0.48944 13.09017 L0.70224 13.68125 L0.95173 14.25779 L1.23693 14.81754 L1.55672 15.35827 L1.90983 15.87785 L2.29487 16.37424 L2.71031 16.84547 L3.15453 17.28969 L3.62576 17.70513 L4.12215 18.09017 L4.64173 18.44328 L5.18246 18.76307 L5.74221 19.04827 L6.31875 19.29776 L6.90983 19.51056 L7.5131 19.68583 L8.12619 19.82287 L8.74667 19.92115 z"/>
</svg>