<?xml version="1.0" encoding="UTF-8"?>
<!-- Generated by jsxcad -->
<!DOCTYPE svg PUBLIC "-//W3C//DTD SVG 1.1 Tiny//EN" "http://www.w3.org/Graphics/SVG/1.1/DTD/svg11-tiny.dtd">
<svg baseProfile="tiny" height="20.000000000000014mm" width="20.000000000000014mm" viewBox="0 0 20.000000000000014 20.000000000000014" version="1.1" stroke="black" stroke-width=".1" fill="none" xmlns="http://www.w3.org/2000/svg">
<path fill="#000000" stroke="#000000" d="M10 20 L9.37209 19.98027 L8.74667 19.92115 L8.12619 19.82287 L7.5131 19.68583 L6.90983 19.51057 L6.31875 19.29776 L5.74221 19.04827 L5.18246 18.76307 L4.64173 18.44328 L4.12215 18.09017 L3.62576 17.70513 L3.15453 17.28969 L2.71031 16.84547 L2.29487 16.37424 L1.90983 15.87785 L1.55672 15.35827 L1.23693 14.81754 L0.95173 14.25779 L0.70224 13.68125 L0.48943 13.09017 L0.31417 12.4869 L0.17713 11.87381 L0.07885 11.25333 L0.01973 10.62791 L0 10 L0.01973 9.37209 L0.07885 8.74667 L0.17713 8.12619 L0.31417 7.5131 L0.48943 6.90983 L0.70224 6.31875 L0.95173 5.74221 L1.23693 5.18246 L1.55672 4.64173 L1.90983 4.12215 L2.29487 3.62576 L2.71031 3.15453 L3.15453 2.71031 L3.62576 2.29487 L4.12215 1.90983 L4.64173 1.55672 L5.18246 1.23693 L5.74221 0.95173 L6.31875 0.70224 L6.90983 0.48943 L7.5131 0.31417 L8.12619 0.17713 L8.74667 0.07885 L9.37209 0.01973 L10 0 L10.62791 0.01973 L11.25333 0.07885 L11.87381 0.17713 L12.4869 0.31417 L13.09017 0.48943 L13.68125 0.70224 L14.25779 0.95173 L14.81754 1.23693 L15.35827 1.55672 L15.87785 1.90983 L16.37424 2.29487 L16.84547 2.71031 L17.28969 3.15453 L17.70513 3.62576 L18.09017 4.12215 L18.44328 4.64173 L18.76307 5.18246 L19.04827 5.74221 L19.29776 6.31875 L19.51057 6.90983 L19.68583 7.5131 L19.82287 8.12619 L19.92115 8.74667 L19.98027 9.37209 L20 10 L19.98027 10.62791 L19.92115 11.25333 L19.82287 11.87381 L19.68583 12.4869 L19.51057 13.09017 L19.29776 13.68125 L19.04827 14.25779 L18.76307 14.81754 L18.44328 15.35827 L18.09017 15.87785 L17.70513 16.37424 L17.28969 16.84547 L16.84547 17.28969 L16.37424 17.70513 L15.87785 18.09017 L15.35827 18.44328 L14.81754 18.76307 L14.25779 19.04827 L13.68125 19.29776 L13.09017 19.51057 L12.4869 19.68583 L11.87381 19.82287 L11.25333 19.92115 L10.62791 19.98027 z"/>
<path fill="#000000" stroke="#000000" d="M11.873810464381735 19.82287293199089 L11.873810464381735 19.82287293199089 L11.253329595662743 19.921147447115032 L11.253329595662743 19.921147447115032 z"/>
<path fill="#000000" stroke="#000000" d="M10.627909703010378 19.980266858177988 L10.627909703010378 19.980266858177988 L11.253329740844901 19.921147258425425 L11.253329740844901 19.921147258425425 z"/>
<path fill="#000000" stroke="#000000" d="M10 20.000000000000007 L10 20.000000000000007 L10.627909909998854 19.980267136117124 L10.627909909998854 19.980267136117124 z"/>
<path fill="#000000" stroke="#000000" d="M13.090168699711596 19.510565524377956 L13.090168699711596 19.510565524377956 L12.486900343858787 19.685831183569707 L12.486900343858787 19.685831183569707 z"/>
<path fill="#000000" stroke="#000000" d="M12.486900289331906 19.685831294396543 L12.486900289331906 19.685831294396543 L11.873810683475671 19.822873057694387 L11.873810683475671 19.822873057694387 z"/>
<path fill="#000000" stroke="#000000" d="M15.87785092050778 18.09017118671148 L15.87785092050778 18.09017118671148 L16.374241137233145 17.70513146611214 L16.374241137233145 17.70513146611214 z"/>
<path fill="#000000" stroke="#000000" d="M14.257790651105644 19.04827150461637 L14.257790651105644 19.04827150461637 L13.681251065451898 19.297762462114065 L13.681251065451898 19.297762462114065 z"/>
<path fill="#000000" stroke="#000000" d="M13.681251035319429 19.29776287571034 L13.681251035319429 19.29776287571034 L13.090168451920261 19.51056570004311 L13.090168451920261 19.51056570004311 z"/>
<path fill="#000000" stroke="#000000" d="M15.358269005928939 18.443278537268856 L15.358269005928939 18.443278537268856 L15.877850770936893 18.09017113439919 L15.877850770936893 18.09017113439919 z"/>
<path fill="#000000" stroke="#000000" d="M14.817537753623563 18.763066201584884 L14.817537753623563 18.763066201584884 L15.358269142327686 18.44327854975532 L15.358269142327686 18.44327854975532 z"/>
<path fill="#000000" stroke="#000000" d="M14.817538034049848 18.76306614160558 L14.817538034049848 18.76306614160558 L14.257790813166626 19.04827159592936 L14.257790813166626 19.04827159592936 z"/>
<path fill="#000000" stroke="#000000" d="M17.289688666750507 16.845468666750506 L17.289688666750507 16.845468666750506 L16.845468666750506 17.289688666750507 L16.845468666750506 17.289688666750507 z"/>
<path fill="#000000" stroke="#000000" d="M16.845468615058046 17.289688429091715 L16.845468615058046 17.289688429091715 L16.37424115947475 17.705131315165946 L16.37424115947475 17.705131315165946 z"/>
<path fill="#000000" stroke="#000000" d="M18.443278537268856 15.358269005928939 L18.443278537268856 15.358269005928939 L18.09017113439919 15.877850770936893 L18.09017113439919 15.877850770936893 z"/>
<path fill="#000000" stroke="#000000" d="M17.70513146611214 16.374241137233145 L17.70513146611214 16.374241137233145 L18.09017118671148 15.877850920507782 L18.09017118671148 15.877850920507782 z"/>
<path fill="#000000" stroke="#000000" d="M17.705131315165946 16.37424115947475 L17.705131315165946 16.37424115947475 L17.289688429091715 16.845468615058046 L17.289688429091715 16.845468615058046 z"/>
<path fill="#000000" stroke="#000000" d="M19.04827159592936 14.257790813166626 L19.04827159592936 14.257790813166626 L18.763066141605577 14.817538034049848 L18.763066141605577 14.817538034049848 z"/>
<path fill="#000000" stroke="#000000" d="M18.763066201584884 14.817537753623562 L18.763066201584884 14.817537753623562 L18.44327854975532 15.358269142327684 L18.44327854975532 15.358269142327684 z"/>
<path fill="#000000" stroke="#000000" d="M19.51056570004311 13.090168451920261 L19.51056570004311 13.090168451920261 L19.297762875710337 13.681251035319427 L19.297762875710337 13.681251035319427 z"/>
<path fill="#000000" stroke="#000000" d="M19.297762462114065 13.681251065451898 L19.297762462114065 13.681251065451898 L19.048271504616366 14.257790651105644 L19.048271504616366 14.257790651105644 z"/>
<path fill="#000000" stroke="#000000" d="M19.92114744711503 11.253329595662743 L19.92114744711503 11.253329595662743 L19.82287293199089 11.873810464381735 L19.82287293199089 11.873810464381735 z"/>
<path fill="#000000" stroke="#000000" d="M19.685831294396543 12.486900289331906 L19.685831294396543 12.486900289331906 L19.822873057694387 11.873810683475671 L19.822873057694387 11.873810683475671 z"/>
<path fill="#000000" stroke="#000000" d="M19.685831183569707 12.486900343858787 L19.685831183569707 12.486900343858787 L19.510565524377956 13.090168699711596 L19.510565524377956 13.090168699711596 z"/>
<path fill="#000000" stroke="#000000" d="M20.000000000000007 10 L20.000000000000007 10 L19.980267136117124 10.627909909998854 L19.980267136117124 10.627909909998854 z"/>
<path fill="#000000" stroke="#000000" d="M19.980266858177988 10.627909703010378 L19.980266858177988 10.627909703010378 L19.921147258425425 11.253329740844901 L19.921147258425425 11.253329740844901 z"/>
<path fill="#000000" stroke="#000000" d="M19.980266858177984 9.37209029698962 L19.980266858177984 9.37209029698962 L19.921147258425425 8.746670259155097 L19.921147258425425 8.746670259155097 z"/>
<path fill="#000000" stroke="#000000" d="M19.92114744711503 8.746670404337257 L19.92114744711503 8.746670404337257 L19.822872931990887 8.126189535618263 L19.822872931990887 8.126189535618263 z"/>
<path fill="#000000" stroke="#000000" d="M19.980267136117124 9.372090090001144 L19.980267136117124 9.372090090001144 L20.000000000000004 9.999999999999998 L20.000000000000004 9.999999999999998 z"/>
<path fill="#000000" stroke="#000000" d="M19.510565524377952 6.909831300288404 L19.510565524377952 6.909831300288404 L19.6858311835697 7.513099656141214 L19.6858311835697 7.513099656141214 z"/>
<path fill="#000000" stroke="#000000" d="M19.68583129439654 7.513099710668093 L19.68583129439654 7.513099710668093 L19.822873057694384 8.126189316524327 L19.822873057694384 8.126189316524327 z"/>
<path fill="#000000" stroke="#000000" d="M19.048271504616363 5.742209348894357 L19.048271504616363 5.742209348894357 L19.297762462114058 6.318748934548103 L19.297762462114058 6.318748934548103 z"/>
<path fill="#000000" stroke="#000000" d="M19.297762875710333 6.318748964680572 L19.297762875710333 6.318748964680572 L19.510565700043102 6.909831548079739 L19.510565700043102 6.909831548079739 z"/>
<path fill="#000000" stroke="#000000" d="M18.763066141605574 5.182461965950153 L18.763066141605574 5.182461965950153 L19.048271595929354 5.742209186833376 L19.048271595929354 5.742209186833376 z"/>
<path fill="#000000" stroke="#000000" d="M17.70513131516594 3.625758840525254 L17.70513131516594 3.625758840525254 L17.289688429091708 3.1545313849419565 L17.289688429091708 3.1545313849419565 z"/>
<path fill="#000000" stroke="#000000" d="M17.2896886667505 3.154531333249499 L17.2896886667505 3.154531333249499 L16.8454686667505 2.7103113332494986 L16.8454686667505 2.7103113332494986 z"/>
<path fill="#000000" stroke="#000000" d="M18.090171134399185 4.12214922906311 L18.090171134399185 4.12214922906311 L18.44327853726885 4.641730994071063 L18.44327853726885 4.641730994071063 z"/>
<path fill="#000000" stroke="#000000" d="M18.443278549755313 4.641730857672316 L18.443278549755313 4.641730857672316 L18.763066201584877 5.182462246376439 L18.763066201584877 5.182462246376439 z"/>
<path fill="#000000" stroke="#000000" d="M18.090171186711473 4.122149079492223 L18.090171186711473 4.122149079492223 L17.70513146611213 3.6257588627668578 L17.70513146611213 3.6257588627668578 z"/>
<path fill="#000000" stroke="#000000" d="M15.358269005928934 1.5567214627311534 L15.358269005928934 1.5567214627311534 L15.877850770936886 1.9098288656008189 L15.877850770936886 1.9098288656008189 z"/>
<path fill="#000000" stroke="#000000" d="M16.37424113723314 2.294868533887869 L16.37424113723314 2.294868533887869 L15.877850920507775 1.9098288132885264 L15.877850920507775 1.9098288132885264 z"/>
<path fill="#000000" stroke="#000000" d="M16.374241159474742 2.294868684834059 L16.374241159474742 2.294868684834059 L16.84546861505804 2.710311570908292 L16.84546861505804 2.710311570908292 z"/>
<path fill="#000000" stroke="#000000" d="M14.257790813166618 0.9517284040706485 L14.257790813166618 0.9517284040706485 L14.817538034049843 1.2369338583944292 L14.817538034049843 1.2369338583944292 z"/>
<path fill="#000000" stroke="#000000" d="M14.817537753623556 1.2369337984151239 L14.817537753623556 1.2369337984151239 L15.358269142327678 1.5567214502446907 L15.358269142327678 1.5567214502446907 z"/>
<path fill="#000000" stroke="#000000" d="M13.681251065451892 0.7022375378859473 L13.681251065451892 0.7022375378859473 L14.257790651105639 0.9517284953836422 L14.257790651105639 0.9517284953836422 z"/>
<path fill="#000000" stroke="#000000" d="M13.090168699711592 0.4894344756220544 L13.090168699711592 0.4894344756220544 L12.486900343858782 0.31416881643030536 L12.486900343858782 0.31416881643030536 z"/>
<path fill="#000000" stroke="#000000" d="M11.87381068347567 0.1771269423056245 L11.87381068347567 0.1771269423056245 L12.486900289331903 0.31416870560346843 L12.486900289331903 0.31416870560346843 z"/>
<path fill="#000000" stroke="#000000" d="M11.873810464381734 0.1771270680091205 L11.873810464381734 0.1771270680091205 L11.25332959566274 0.07885255288498116 L11.25332959566274 0.07885255288498116 z"/>
<path fill="#000000" stroke="#000000" d="M13.090168451920258 0.4894342999569026 L13.090168451920258 0.4894342999569026 L13.681251035319423 0.7022371242896731 L13.681251035319423 0.7022371242896731 z"/>
<path fill="#000000" stroke="#000000" d="M10 7.549852120045358e-15 L10 7.549852120045358e-15 L9.372090090001144 0.019732863882887856 L9.372090090001144 0.019732863882887856 z"/>
<path fill="#000000" stroke="#000000" d="M9.37209029698962 0.019733141822027202 L9.37209029698962 0.019733141822027202 L8.746670259155099 0.07885274157458898 L8.746670259155099 0.07885274157458898 z"/>
<path fill="#000000" stroke="#000000" d="M10.627909909998854 0.019732863882886954 L10.627909909998854 0.019732863882886954 L9.999999999999998 6.6469816573469096e-15 L9.999999999999998 6.6469816573469096e-15 z"/>
<path fill="#000000" stroke="#000000" d="M10.627909703010378 0.019733141822024507 L10.627909703010378 0.019733141822024507 L11.2533297408449 0.07885274157458785 L11.2533297408449 0.07885274157458785 z"/>
<path fill="#000000" stroke="#000000" d="M7.5130997106680955 0.31416870560347104 L7.5130997106680955 0.31416870560347104 L8.12618931652433 0.17712694230562767 L8.12618931652433 0.17712694230562767 z"/>
<path fill="#000000" stroke="#000000" d="M8.126189535618265 0.17712706800912179 L8.126189535618265 0.17712706800912179 L8.746670404337259 0.0788525528849842 L8.746670404337259 0.0788525528849842 z"/>
<path fill="#000000" stroke="#000000" d="M6.909831300288408 0.48943447562205733 L6.909831300288408 0.48943447562205733 L7.513099656141217 0.3141688164303096 L7.513099656141217 0.3141688164303096 z"/>
<path fill="#000000" stroke="#000000" d="M5.742209348894362 0.9517284953836477 L5.742209348894362 0.9517284953836477 L6.3187489345481085 0.7022375378859513 L6.3187489345481085 0.7022375378859513 z"/>
<path fill="#000000" stroke="#000000" d="M6.318748964680577 0.7022371242896756 L6.318748964680577 0.7022371242896756 L6.909831548079744 0.4894342999569072 L6.909831548079744 0.4894342999569072 z"/>
<path fill="#000000" stroke="#000000" d="M4.641730857672322 1.5567214502446969 L4.641730857672322 1.5567214502446969 L5.1824622463764465 1.2369337984151318 L5.1824622463764465 1.2369337984151318 z"/>
<path fill="#000000" stroke="#000000" d="M5.182461965950159 1.2369338583944358 L5.182461965950159 1.2369338583944358 L5.742209186833383 0.9517284040706554 L5.742209186833383 0.9517284040706554 z"/>
<path fill="#000000" stroke="#000000" d="M3.154531384941963 2.710311570908299 L3.154531384941963 2.710311570908299 L3.6257588405252608 2.2948686848340665 L3.6257588405252608 2.2948686848340665 z"/>
<path fill="#000000" stroke="#000000" d="M4.12214907949223 1.9098288132885337 L4.12214907949223 1.9098288132885337 L3.6257588627668644 2.2948685338878754 L3.6257588627668644 2.2948685338878754 z"/>
<path fill="#000000" stroke="#000000" d="M4.122149229063116 1.9098288656008249 L4.122149229063116 1.9098288656008249 L4.64173099407107 1.556721462731161 L4.64173099407107 1.556721462731161 z"/>
<path fill="#000000" stroke="#000000" d="M2.2948686848340656 3.6257588405252603 L2.2948686848340656 3.6257588405252603 L2.7103115709082997 3.1545313849419636 L2.7103115709082997 3.1545313849419636 z"/>
<path fill="#000000" stroke="#000000" d="M2.7103113332495052 3.154531333249505 L2.7103113332495052 3.154531333249505 L3.1545313332495066 2.710311333249507 L3.1545313332495066 2.710311333249507 z"/>
<path fill="#000000" stroke="#000000" d="M1.5567214627311594 4.641730994071069 L1.5567214627311594 4.641730994071069 L1.9098288656008249 4.122149229063117 L1.9098288656008249 4.122149229063117 z"/>
<path fill="#000000" stroke="#000000" d="M1.909828813288532 4.122149079492229 L1.909828813288532 4.122149079492229 L2.2948685338878767 3.6257588627668653 L2.2948685338878767 3.6257588627668653 z"/>
<path fill="#000000" stroke="#000000" d="M0.9517284040706541 5.742209186833382 L0.9517284040706541 5.742209186833382 L1.2369338583944365 5.182461965950159 L1.2369338583944365 5.182461965950159 z"/>
<path fill="#000000" stroke="#000000" d="M1.2369337984151305 5.182462246376446 L1.2369337984151305 5.182462246376446 L1.5567214502446973 4.641730857672322 L1.5567214502446973 4.641730857672322 z"/>
<path fill="#000000" stroke="#000000" d="M0.31416881643030975 7.513099656141217 L0.31416881643030975 7.513099656141217 L0.48943447562205766 6.909831300288408 L0.48943447562205766 6.909831300288408 z"/>
<path fill="#000000" stroke="#000000" d="M0.7022371242896772 6.3187489646805775 L0.7022371242896772 6.3187489646805775 L0.4894342999569053 6.909831548079743 L0.4894342999569053 6.909831548079743 z"/>
<path fill="#000000" stroke="#000000" d="M0.7022375378859509 6.3187489345481085 L0.7022375378859509 6.3187489345481085 L0.9517284953836487 5.742209348894363 L0.9517284953836487 5.742209348894363 z"/>
<path fill="#000000" stroke="#000000" d="M0.1771269423056283 8.12618931652433 L0.1771269423056283 8.12618931652433 L0.31416870560347354 7.513099710668096 L0.31416870560347354 7.513099710668096 z"/>
<path fill="#000000" stroke="#000000" d="M6.307084794813005e-15 10 L6.307084794813005e-15 10 L0.01973286388288832 9.372090090001144 L0.01973286388288832 9.372090090001144 z"/>
<path fill="#000000" stroke="#000000" d="M0.07885274157458926 8.746670259155099 L0.07885274157458926 8.746670259155099 L0.01973314182202505 9.37209029698962 L0.01973314182202505 9.37209029698962 z"/>
<path fill="#000000" stroke="#000000" d="M0.07885255288498232 8.746670404337259 L0.07885255288498232 8.746670404337259 L0.17712706800912478 8.126189535618265 L0.17712706800912478 8.126189535618265 z"/>
<path fill="#000000" stroke="#000000" d="M0.01973286388288635 10.627909909998854 L0.01973286388288635 10.627909909998854 L7.88974898257912e-15 9.999999999999998 L7.88974898257912e-15 9.999999999999998 z"/>
<path fill="#000000" stroke="#000000" d="M0.07885274157458606 11.2533297408449 L0.07885274157458606 11.2533297408449 L0.01973314182202624 10.627909703010378 L0.01973314182202624 10.627909703010378 z"/>
<path fill="#000000" stroke="#000000" d="M0.07885255288498173 11.25332959566274 L0.07885255288498173 11.25332959566274 L0.17712706800912062 11.873810464381734 L0.17712706800912062 11.873810464381734 z"/>
<path fill="#000000" stroke="#000000" d="M0.48943447562205306 13.090168699711592 L0.48943447562205306 13.090168699711592 L0.31416881643030636 12.486900343858782 L0.31416881643030636 12.486900343858782 z"/>
<path fill="#000000" stroke="#000000" d="M0.31416870560346694 12.486900289331905 L0.31416870560346694 12.486900289331905 L0.17712694230562678 11.87381068347567 L0.17712694230562678 11.87381068347567 z"/>
<path fill="#000000" stroke="#000000" d="M0.7022371242896717 13.681251035319423 L0.7022371242896717 13.681251035319423 L0.4894342999569036 13.090168451920256 L0.4894342999569036 13.090168451920256 z"/>
<path fill="#000000" stroke="#000000" d="M1.55672145024469 15.35826914232768 L1.55672145024469 15.35826914232768 L1.2369337984151252 14.817537753623556 L1.2369337984151252 14.817537753623556 z"/>
<path fill="#000000" stroke="#000000" d="M0.9517284040706491 14.257790813166618 L0.9517284040706491 14.257790813166618 L1.236933858394428 14.817538034049843 L1.236933858394428 14.817538034049843 z"/>
<path fill="#000000" stroke="#000000" d="M0.9517284953836408 14.257790651105639 L0.9517284953836408 14.257790651105639 L0.7022375378859481 13.68125106545189 L0.7022375378859481 13.68125106545189 z"/>
<path fill="#000000" stroke="#000000" d="M3.625758862766859 17.705131466112128 L3.625758862766859 17.705131466112128 L4.122149079492223 18.090171186711473 L4.122149079492223 18.090171186711473 z"/>
<path fill="#000000" stroke="#000000" d="M2.2948685338878683 16.37424113723314 L2.2948685338878683 16.37424113723314 L1.909828813288527 15.877850920507775 L1.909828813288527 15.877850920507775 z"/>
<path fill="#000000" stroke="#000000" d="M1.909828865600817 15.877850770936888 L1.909828865600817 15.877850770936888 L1.556721462731155 15.358269005928932 L1.556721462731155 15.358269005928932 z"/>
<path fill="#000000" stroke="#000000" d="M2.7103115709082912 16.845468615058042 L2.7103115709082912 16.845468615058042 L2.29486868483406 16.374241159474742 L2.29486868483406 16.374241159474742 z"/>
<path fill="#000000" stroke="#000000" d="M3.1545313849419574 17.289688429091704 L3.1545313849419574 17.289688429091704 L3.625758840525253 17.70513131516594 L3.625758840525253 17.70513131516594 z"/>
<path fill="#000000" stroke="#000000" d="M3.1545313332494977 17.2896886667505 L3.1545313332494977 17.2896886667505 L2.7103113332494995 16.8454686667505 L2.7103113332494995 16.8454686667505 z"/>
<path fill="#000000" stroke="#000000" d="M5.1824622463764385 18.763066201584877 L5.1824622463764385 18.763066201584877 L4.641730857672318 18.44327854975531 L4.641730857672318 18.44327854975531 z"/>
<path fill="#000000" stroke="#000000" d="M4.641730994071063 18.44327853726885 L4.641730994071063 18.44327853726885 L4.122149229063112 18.09017113439918 L4.122149229063112 18.09017113439918 z"/>
<path fill="#000000" stroke="#000000" d="M6.318748934548103 19.29776246211406 L6.318748934548103 19.29776246211406 L5.742209348894357 19.048271504616363 L5.742209348894357 19.048271504616363 z"/>
<path fill="#000000" stroke="#000000" d="M5.742209186833375 19.048271595929357 L5.742209186833375 19.048271595929357 L5.182461965950154 18.76306614160557 L5.182461965950154 18.76306614160557 z"/>
<path fill="#000000" stroke="#000000" d="M7.513099656141213 19.685831183569704 L7.513099656141213 19.685831183569704 L6.909831300288405 19.510565524377952 L6.909831300288405 19.510565524377952 z"/>
<path fill="#000000" stroke="#000000" d="M6.9098315480797385 19.510565700043106 L6.9098315480797385 19.510565700043106 L6.318748964680573 19.297762875710333 L6.318748964680573 19.297762875710333 z"/>
<path fill="#000000" stroke="#000000" d="M8.746670404337257 19.92114744711503 L8.746670404337257 19.92114744711503 L8.126189535618263 19.822872931990887 L8.126189535618263 19.822872931990887 z"/>
<path fill="#000000" stroke="#000000" d="M8.126189316524327 19.822873057694387 L8.126189316524327 19.822873057694387 L7.513099710668093 19.68583129439654 L7.513099710668093 19.68583129439654 z"/>
<path fill="#000000" stroke="#000000" d="M9.37209029698962 19.980266858177988 L9.37209029698962 19.980266858177988 L8.746670259155097 19.92114725842542 L8.746670259155097 19.92114725842542 z"/>
<path fill="#000000" stroke="#000000" d="M9.372090090001144 19.980267136117124 L9.372090090001144 19.980267136117124 L9.999999999999998 20.000000000000004 L9.999999999999998 20.000000000000004 z"/>
<path fill="#000000" stroke="#000000" d="M9.37209 19.98027 L10 20 L10.62791 19.98027 L11.25333 19.92115 L11.87381 19.82287 L12.4869 19.68583 L13.09017 19.51057 L13.68125 19.29776 L14.25779 19.04827 L14.81754 18.76307 L15.35827 18.44328 L15.87785 18.09017 L16.37424 17.70513 L16.84547 17.28969 L17.28969 16.84547 L17.70513 16.37424 L18.09017 15.87785 L18.44328 15.35827 L18.76307 14.81754 L19.04827 14.25779 L19.29776 13.68125 L19.51057 13.09017 L19.68583 12.4869 L19.82287 11.87381 L19.92115 11.25333 L19.98027 10.62791 L20 10 L19.98027 9.37209 L19.92115 8.74667 L19.82287 8.12619 L19.68583 7.5131 L19.51057 6.90983 L19.29776 6.31875 L19.04827 5.74221 L18.76307 5.18246 L18.44328 4.64173 L18.09017 4.12215 L17.70513 3.62576 L17.28969 3.15453 L16.84547 2.71031 L16.37424 2.29487 L15.87785 1.90983 L15.35827 1.55672 L14.81754 1.23693 L14.25779 0.95173 L13.68125 0.70224 L13.09017 0.48943 L12.4869 0.31417 L11.87381 0.17713 L11.25333 0.07885 L10.62791 0.01973 L10 0 L9.37209 0.01973 L8.74667 0.07885 L8.12619 0.17713 L7.5131 0.31417 L6.90983 0.48943 L6.31875 0.70224 L5.74221 0.95173 L5.18246 1.23693 L4.64173 1.55672 L4.12215 1.90983 L3.62576 2.29487 L3.15453 2.71031 L2.71031 3.15453 L2.29487 3.62576 L1.90983 4.12215 L1.55672 4.64173 L1.23693 5.18246 L0.95173 5.74221 L0.70224 6.31875 L0.48943 6.90983 L0.31417 7.5131 L0.17713 8.12619 L0.07885 8.74667 L0.01973 9.37209 L0 10 L0.01973 10.62791 L0.07885 11.25333 L0.17713 11.87381 L0.31417 12.4869 L0.48943 13.09017 L0.70224 13.68125 L0.95173 14.25779 L1.23693 14.81754 L1.55672 15.35827 L1.90983 15.87785 L2.29487 16.37424 L2.71031 16.84547 L3.15453 17.28969 L3.62576 17.70513 L4.12215 18.09017 L4.64173 18.44328 L5.18246 18.76307 L5.74221 19.04827 L6.31875 19.29776 L6.90983 19.51057 L7.5131 19.68583 L8.12619 19.82287 L8.74667 19.92115 z"/>
</svg>